{"accessors" : [{"bufferView" : 0, "byteOffset" : 0, "componentType" : 5123, "count" : 36, "type" : "SCALAR", "max" : [34], "min" : [0]}, {"bufferView" : 1, "byteOffset" : 0, "componentType" : 5126, "count" : 35, "type" : "VEC3", "max" : [-1.8500620126724243, 0.44696998596191406, -1.8500620126724243], "min" : [-3.7001240253448486, -0.44696998596191406, -3.7001240253448486], "name" : "POSITION"}, {"bufferView" : 1, "byteOffset" : 12, "componentType" : 5126, "count" : 35, "type" : "VEC2", "max" : [1, -0], "min" : [0, -1], "name" : "TEXCOORD_0"}, {"bufferView" : 0, "byteOffset" : 72, "componentType" : 5123, "count" : 36, "type" : "SCALAR", "max" : [34], "min" : [0]}, {"bufferView" : 2, "byteOffset" : 0, "componentType" : 5126, "count" : 35, "type" : "VEC3", "max" : [-11.100370407104492, 0.44696900248527527, -11.100372314453125], "min" : [-12.950431823730469, -0.44696998596191406, -12.950433731079102], "name" : "POSITION"}, {"bufferView" : 2, "byteOffset" : 12, "componentType" : 5126, "count" : 35, "type" : "VEC2", "max" : [1, -0], "min" : [0, -1], "name" : "TEXCOORD_0"}, {"bufferView" : 0, "byteOffset" : 144, "componentType" : 5123, "count" : 216, "type" : "SCALAR", "max" : [171], "min" : [0]}, {"bufferView" : 3, "byteOffset" : 0, "componentType" : 5126, "count" : 172, "type" : "VEC3", "max" : [-9.250308990478516, 0.597241997718811, -9.250310897827148], "min" : [-14.800495147705078, -0.5972440242767334, -14.800495147705078], "name" : "POSITION"}, {"bufferView" : 3, "byteOffset" : 12, "componentType" : 5126, "count" : 172, "type" : "VEC2", "max" : [1, -0], "min" : [0, -1], "name" : "TEXCOORD_0"}, {"bufferView" : 0, "byteOffset" : 576, "componentType" : 5123, "count" : 36, "type" : "SCALAR", "max" : [34], "min" : [0]}, {"bufferView" : 4, "byteOffset" : 0, "componentType" : 5126, "count" : 35, "type" : "VEC3", "max" : [-9.250308990478516, 0.44696900248527527, -9.250310897827148], "min" : [-11.100370407104492, -0.44696998596191406, -11.100372314453125], "name" : "POSITION"}, {"bufferView" : 4, "byteOffset" : 12, "componentType" : 5126, "count" : 35, "type" : "VEC2", "max" : [1, -0], "min" : [0, -1], "name" : "TEXCOORD_0"}, {"bufferView" : 0, "byteOffset" : 648, "componentType" : 5123, "count" : 36, "type" : "SCALAR", "max" : [34], "min" : [0]}, {"bufferView" : 5, "byteOffset" : 0, "componentType" : 5126, "count" : 35, "type" : "VEC3", "max" : [-9.250308990478516, 0.597241997718811, -11.100372314453125], "min" : [-11.100370407104492, -0.5972440242767334, -12.950433731079102], "name" : "POSITION"}, {"bufferView" : 5, "byteOffset" : 12, "componentType" : 5126, "count" : 35, "type" : "VEC2", "max" : [1, -0], "min" : [0, -1], "name" : "TEXCOORD_0"}, {"bufferView" : 0, "byteOffset" : 720, "componentType" : 5123, "count" : 36, "type" : "SCALAR", "max" : [34], "min" : [0]}, {"bufferView" : 6, "byteOffset" : 0, "componentType" : 5126, "count" : 35, "type" : "VEC3", "max" : [-9.250308990478516, 0.597241997718811, -7.400249004364014], "min" : [-11.100370407104492, -0.5972440242767334, -9.250310897827148], "name" : "POSITION"}, {"bufferView" : 6, "byteOffset" : 12, "componentType" : 5126, "count" : 35, "type" : "VEC2", "max" : [1, -0], "min" : [0, -1], "name" : "TEXCOORD_0"}, {"bufferView" : 0, "byteOffset" : 792, "componentType" : 5123, "count" : 36, "type" : "SCALAR", "max" : [34], "min" : [0]}, {"bufferView" : 7, "byteOffset" : 0, "componentType" : 5126, "count" : 35, "type" : "VEC3", "max" : [-7.400247097015381, 0.5972430109977722, -9.250310897827148], "min" : [-9.250308990478516, -0.5972430109977722, -11.100372314453125], "name" : "POSITION"}, {"bufferView" : 7, "byteOffset" : 12, "componentType" : 5126, "count" : 35, "type" : "VEC2", "max" : [1, -0], "min" : [0, -1], "name" : "TEXCOORD_0"}, {"bufferView" : 0, "byteOffset" : 864, "componentType" : 5123, "count" : 36, "type" : "SCALAR", "max" : [34], "min" : [0]}, {"bufferView" : 8, "byteOffset" : 0, "componentType" : 5126, "count" : 35, "type" : "VEC3", "max" : [-7.400247097015381, 0.5972430109977722, -5.550187110900879], "min" : [-9.250308990478516, -0.5972430109977722, -7.400249004364014], "name" : "POSITION"}, {"bufferView" : 8, "byteOffset" : 12, "componentType" : 5126, "count" : 35, "type" : "VEC2", "max" : [1, -0], "min" : [0, -1], "name" : "TEXCOORD_0"}, {"bufferView" : 0, "byteOffset" : 936, "componentType" : 5123, "count" : 36, "type" : "SCALAR", "max" : [34], "min" : [0]}, {"bufferView" : 9, "byteOffset" : 0, "componentType" : 5126, "count" : 35, "type" : "VEC3", "max" : [-7.400247097015381, 0.44696900248527527, -7.400249004364014], "min" : [-9.250308990478516, -0.44696998596191406, -9.250310897827148], "name" : "POSITION"}, {"bufferView" : 9, "byteOffset" : 12, "componentType" : 5126, "count" : 35, "type" : "VEC2", "max" : [1, -0], "min" : [0, -1], "name" : "TEXCOORD_0"}, {"bufferView" : 0, "byteOffset" : 1008, "componentType" : 5123, "count" : 36, "type" : "SCALAR", "max" : [34], "min" : [0]}, {"bufferView" : 10, "byteOffset" : 0, "componentType" : 5126, "count" : 35, "type" : "VEC3", "max" : [-5.550185203552246, 0.44696900248527527, -5.5501861572265625], "min" : [-7.400247097015381, -0.44696998596191406, -7.400248050689697], "name" : "POSITION"}, {"bufferView" : 10, "byteOffset" : 12, "componentType" : 5126, "count" : 35, "type" : "VEC2", "max" : [1, -0], "min" : [0, -1], "name" : "TEXCOORD_0"}, {"bufferView" : 0, "byteOffset" : 1080, "componentType" : 5123, "count" : 36, "type" : "SCALAR", "max" : [34], "min" : [0]}, {"bufferView" : 11, "byteOffset" : 0, "componentType" : 5126, "count" : 35, "type" : "VEC3", "max" : [-5.550185203552246, 0.5972430109977722, -7.400248050689697], "min" : [-7.400247097015381, -0.5972430109977722, -9.250308990478516], "name" : "POSITION"}, {"bufferView" : 11, "byteOffset" : 12, "componentType" : 5126, "count" : 35, "type" : "VEC2", "max" : [1, -0], "min" : [0, -1], "name" : "TEXCOORD_0"}, {"bufferView" : 0, "byteOffset" : 1152, "componentType" : 5123, "count" : 216, "type" : "SCALAR", "max" : [190], "min" : [0]}, {"bufferView" : 12, "byteOffset" : 0, "componentType" : 5126, "count" : 191, "type" : "VEC3", "max" : [-5.550185203552246, 0.5972430109977722, 3.7001230716705322], "min" : [-11.100370407104492, -0.5972440242767334, -5.550187110900879], "name" : "POSITION"}, {"bufferView" : 12, "byteOffset" : 12, "componentType" : 5126, "count" : 191, "type" : "VEC2", "max" : [1, -0], "min" : [0, -1], "name" : "TEXCOORD_0"}, {"bufferView" : 0, "byteOffset" : 1584, "componentType" : 5123, "count" : 36, "type" : "SCALAR", "max" : [34], "min" : [0]}, {"bufferView" : 13, "byteOffset" : 0, "componentType" : 5126, "count" : 35, "type" : "VEC3", "max" : [-7.400247097015381, 0.44696900248527527, 1.850061058998108], "min" : [-9.250308990478516, -0.44696998596191406, -9.999999974752427E-07], "name" : "POSITION"}, {"bufferView" : 13, "byteOffset" : 12, "componentType" : 5126, "count" : 35, "type" : "VEC2", "max" : [1, -0], "min" : [0, -1], "name" : "TEXCOORD_0"}, {"bufferView" : 0, "byteOffset" : 1656, "componentType" : 5123, "count" : 432, "type" : "SCALAR", "max" : [351], "min" : [0]}, {"bufferView" : 14, "byteOffset" : 0, "componentType" : 5126, "count" : 352, "type" : "VEC3", "max" : [3.700124979019165, 0.5972430109977722, 1.850061058998108], "min" : [-7.400247097015381, -0.5972430109977722, -11.100371360778809], "name" : "POSITION"}, {"bufferView" : 14, "byteOffset" : 12, "componentType" : 5126, "count" : 352, "type" : "VEC2", "max" : [1, -0], "min" : [0, -1], "name" : "TEXCOORD_0"}, {"bufferView" : 0, "byteOffset" : 2520, "componentType" : 5123, "count" : 180, "type" : "SCALAR", "max" : [156], "min" : [0]}, {"bufferView" : 15, "byteOffset" : 0, "componentType" : 5126, "count" : 157, "type" : "VEC3", "max" : [9.999999974752427E-07, 0.44696998596191406, -9.999999974752427E-07], "min" : [-7.400247097015381, -0.44696998596191406, -7.400248050689697], "name" : "POSITION"}, {"bufferView" : 15, "byteOffset" : 12, "componentType" : 5126, "count" : 157, "type" : "VEC2", "max" : [1, -0], "min" : [0, -1], "name" : "TEXCOORD_0"}, {"bufferView" : 0, "byteOffset" : 2880, "componentType" : 5123, "count" : 36, "type" : "SCALAR", "max" : [34], "min" : [0]}, {"bufferView" : 16, "byteOffset" : 0, "componentType" : 5126, "count" : 35, "type" : "VEC3", "max" : [1.8500629663467407, 0.44696998596191406, -7.400248050689697], "min" : [9.999999974752427E-07, -0.44696998596191406, -9.250308990478516], "name" : "POSITION"}, {"bufferView" : 16, "byteOffset" : 12, "componentType" : 5126, "count" : 35, "type" : "VEC2", "max" : [1, -0], "min" : [0, -1], "name" : "TEXCOORD_0"}, {"bufferView" : 0, "byteOffset" : 2952, "componentType" : 5123, "count" : 36, "type" : "SCALAR", "max" : [34], "min" : [0]}, {"bufferView" : 17, "byteOffset" : 0, "componentType" : 5126, "count" : 35, "type" : "VEC3", "max" : [-1.8500620126724243, 0.5972430109977722, -0], "min" : [-3.7001240253448486, -0.5972430109977722, -1.8500620126724243], "name" : "POSITION"}, {"bufferView" : 17, "byteOffset" : 12, "componentType" : 5126, "count" : 35, "type" : "VEC2", "max" : [1, -0], "min" : [0, -1], "name" : "TEXCOORD_0"}, {"bufferView" : 0, "byteOffset" : 3024, "componentType" : 5123, "count" : 36, "type" : "SCALAR", "max" : [34], "min" : [0]}, {"bufferView" : 18, "byteOffset" : 0, "componentType" : 5126, "count" : 35, "type" : "VEC3", "max" : [0, 0.44696998596191406, -0], "min" : [-1.8500620126724243, -0.44696998596191406, -1.8500620126724243], "name" : "POSITION"}, {"bufferView" : 18, "byteOffset" : 12, "componentType" : 5126, "count" : 35, "type" : "VEC2", "max" : [1, -0], "min" : [0, -1], "name" : "TEXCOORD_0"}, {"bufferView" : 0, "byteOffset" : 3096, "componentType" : 5123, "count" : 108, "type" : "SCALAR", "max" : [104], "min" : [0]}, {"bufferView" : 19, "byteOffset" : 0, "componentType" : 5126, "count" : 105, "type" : "VEC3", "max" : [1.8500629663467407, 0.5972430109977722, 1.850061058998108], "min" : [-1.8500620126724243, -0.5972430109977722, -3.7001240253448486], "name" : "POSITION"}, {"bufferView" : 19, "byteOffset" : 12, "componentType" : 5126, "count" : 105, "type" : "VEC2", "max" : [1, -0], "min" : [0, -1], "name" : "TEXCOORD_0"}, {"bufferView" : 0, "byteOffset" : 3312, "componentType" : 5123, "count" : 72, "type" : "SCALAR", "max" : [64], "min" : [0]}, {"bufferView" : 20, "byteOffset" : 0, "componentType" : 5126, "count" : 65, "type" : "VEC3", "max" : [3.700124979019165, 0.44696998596191406, 3.7001230716705322], "min" : [9.999999974752427E-07, -0.44696998596191406, -9.999999974752427E-07], "name" : "POSITION"}, {"bufferView" : 20, "byteOffset" : 12, "componentType" : 5126, "count" : 65, "type" : "VEC2", "max" : [1, -0], "min" : [0, -1], "name" : "TEXCOORD_0"}, {"bufferView" : 0, "byteOffset" : 3456, "componentType" : 5123, "count" : 108, "type" : "SCALAR", "max" : [100], "min" : [0]}, {"bufferView" : 21, "byteOffset" : 0, "componentType" : 5126, "count" : 101, "type" : "VEC3", "max" : [3.700124979019165, 0.5972430109977722, 5.5501837730407715], "min" : [9.999999974752427E-07, -0.5972430109977722, -9.999999974752427E-07], "name" : "POSITION"}, {"bufferView" : 21, "byteOffset" : 12, "componentType" : 5126, "count" : 101, "type" : "VEC2", "max" : [1, -0], "min" : [0, -1], "name" : "TEXCOORD_0"}, {"bufferView" : 0, "byteOffset" : 3672, "componentType" : 5123, "count" : 36, "type" : "SCALAR", "max" : [34], "min" : [0]}, {"bufferView" : 22, "byteOffset" : 0, "componentType" : 5126, "count" : 35, "type" : "VEC3", "max" : [5.550185203552246, 0.44696998596191406, 5.5501861572265625], "min" : [3.7001230716705322, -0.44696900248527527, 3.7001240253448486], "name" : "POSITION"}, {"bufferView" : 22, "byteOffset" : 12, "componentType" : 5126, "count" : 35, "type" : "VEC2", "max" : [1, -0], "min" : [0, -1], "name" : "TEXCOORD_0"}, {"bufferView" : 0, "byteOffset" : 3744, "componentType" : 5123, "count" : 36, "type" : "SCALAR", "max" : [34], "min" : [0]}, {"bufferView" : 23, "byteOffset" : 0, "componentType" : 5126, "count" : 35, "type" : "VEC3", "max" : [5.550187110900879, 0.5972430109977722, 3.7001240253448486], "min" : [3.700124979019165, -0.5972430109977722, 1.8500620126724243], "name" : "POSITION"}, {"bufferView" : 23, "byteOffset" : 12, "componentType" : 5126, "count" : 35, "type" : "VEC2", "max" : [1, -0], "min" : [0, -1], "name" : "TEXCOORD_0"}, {"bufferView" : 0, "byteOffset" : 3816, "componentType" : 5123, "count" : 36, "type" : "SCALAR", "max" : [34], "min" : [0]}, {"bufferView" : 24, "byteOffset" : 0, "componentType" : 5126, "count" : 35, "type" : "VEC3", "max" : [7.400247097015381, 0.44696998596191406, 7.400248050689697], "min" : [5.550185203552246, -0.44696900248527527, 5.5501861572265625], "name" : "POSITION"}, {"bufferView" : 24, "byteOffset" : 12, "componentType" : 5126, "count" : 35, "type" : "VEC2", "max" : [1, -0], "min" : [0, -1], "name" : "TEXCOORD_0"}, {"bufferView" : 0, "byteOffset" : 3888, "componentType" : 5123, "count" : 108, "type" : "SCALAR", "max" : [96], "min" : [0]}, {"bufferView" : 25, "byteOffset" : 0, "componentType" : 5126, "count" : 97, "type" : "VEC3", "max" : [7.400247097015381, 0.5972430109977722, 9.250308990478516], "min" : [3.7001230716705322, -0.5972430109977722, 3.7001240253448486], "name" : "POSITION"}, {"bufferView" : 25, "byteOffset" : 12, "componentType" : 5126, "count" : 97, "type" : "VEC2", "max" : [1, -0], "min" : [0, -1], "name" : "TEXCOORD_0"}, {"bufferView" : 0, "byteOffset" : 4104, "componentType" : 5123, "count" : 36, "type" : "SCALAR", "max" : [34], "min" : [0]}, {"bufferView" : 26, "byteOffset" : 0, "componentType" : 5126, "count" : 35, "type" : "VEC3", "max" : [9.250308990478516, 0.44696998596191406, 9.250308990478516], "min" : [7.400247097015381, -0.44696900248527527, 7.400248050689697], "name" : "POSITION"}, {"bufferView" : 26, "byteOffset" : 12, "componentType" : 5126, "count" : 35, "type" : "VEC2", "max" : [1, -0], "min" : [0, -1], "name" : "TEXCOORD_0"}, {"bufferView" : 0, "byteOffset" : 4176, "componentType" : 5123, "count" : 36, "type" : "SCALAR", "max" : [34], "min" : [0]}, {"bufferView" : 27, "byteOffset" : 0, "componentType" : 5126, "count" : 35, "type" : "VEC3", "max" : [9.250308990478516, 0.5972440242767334, 7.400248050689697], "min" : [7.400247097015381, -0.597241997718811, 5.5501861572265625], "name" : "POSITION"}, {"bufferView" : 27, "byteOffset" : 12, "componentType" : 5126, "count" : 35, "type" : "VEC2", "max" : [1, -0], "min" : [0, -1], "name" : "TEXCOORD_0"}, {"bufferView" : 0, "byteOffset" : 4248, "componentType" : 5123, "count" : 36, "type" : "SCALAR", "max" : [34], "min" : [0]}, {"bufferView" : 28, "byteOffset" : 0, "componentType" : 5126, "count" : 35, "type" : "VEC3", "max" : [11.100372314453125, 0.44696998596191406, 11.100371360778809], "min" : [9.250308990478516, -0.44696900248527527, 9.250308990478516], "name" : "POSITION"}, {"bufferView" : 28, "byteOffset" : 12, "componentType" : 5126, "count" : 35, "type" : "VEC2", "max" : [1, -0], "min" : [0, -1], "name" : "TEXCOORD_0"}, {"bufferView" : 0, "byteOffset" : 4320, "componentType" : 5123, "count" : 108, "type" : "SCALAR", "max" : [98], "min" : [0]}, {"bufferView" : 29, "byteOffset" : 0, "componentType" : 5126, "count" : 99, "type" : "VEC3", "max" : [11.100372314453125, 0.5972440242767334, 12.950432777404785], "min" : [7.400247097015381, -0.597241997718811, 7.400248050689697], "name" : "POSITION"}, {"bufferView" : 29, "byteOffset" : 12, "componentType" : 5126, "count" : 99, "type" : "VEC2", "max" : [1, -0], "min" : [0, -1], "name" : "TEXCOORD_0"}, {"bufferView" : 0, "byteOffset" : 4536, "componentType" : 5123, "count" : 36, "type" : "SCALAR", "max" : [34], "min" : [0]}, {"bufferView" : 30, "byteOffset" : 0, "componentType" : 5126, "count" : 35, "type" : "VEC3", "max" : [12.950433731079102, 0.44697099924087524, 12.950432777404785], "min" : [11.100372314453125, -0.44696900248527527, 11.100371360778809], "name" : "POSITION"}, {"bufferView" : 30, "byteOffset" : 12, "componentType" : 5126, "count" : 35, "type" : "VEC2", "max" : [1, -0], "min" : [0, -1], "name" : "TEXCOORD_0"}, {"bufferView" : 0, "byteOffset" : 4608, "componentType" : 5123, "count" : 36, "type" : "SCALAR", "max" : [34], "min" : [0]}, {"bufferView" : 31, "byteOffset" : 0, "componentType" : 5126, "count" : 35, "type" : "VEC3", "max" : [12.950433731079102, 0.5972440242767334, 11.100371360778809], "min" : [11.100372314453125, -0.597241997718811, 9.250308990478516], "name" : "POSITION"}, {"bufferView" : 31, "byteOffset" : 12, "componentType" : 5126, "count" : 35, "type" : "VEC2", "max" : [1, -0], "min" : [0, -1], "name" : "TEXCOORD_0"}, {"bufferView" : 0, "byteOffset" : 4680, "componentType" : 5123, "count" : 684, "type" : "SCALAR", "max" : [588], "min" : [0]}, {"bufferView" : 32, "byteOffset" : 0, "componentType" : 5126, "count" : 589, "type" : "VEC3", "max" : [14.800495147705078, 0.5972440242767334, 14.800495147705078], "min" : [-3.7001240253448486, -0.5972430109977722, -3.7001240253448486], "name" : "POSITION"}, {"bufferView" : 32, "byteOffset" : 12, "componentType" : 5126, "count" : 589, "type" : "VEC2", "max" : [1, -0], "min" : [0, -1], "name" : "TEXCOORD_0"}], "asset" : {"generator" : "Aspose.3D 23.9.0", "version" : "2.0"}, "buffers" : [{"uri" : "data:application/octet-stream;base64,", "byteLength" : 66660}], "bufferViews" : [{"buffer" : 0, "byteOffset" : 0, "byteLength" : 6048, "target" : 34963}, {"buffer" : 0, "byteOffset" : 6052, "byteLength" : 720, "byteStride" : 20, "target" : 34962}, {"buffer" : 0, "byteOffset" : 6776, "byteLength" : 720, "byteStride" : 20, "target" : 34962}, {"buffer" : 0, "byteOffset" : 7500, "byteLength" : 4320, "byteStride" : 20, "target" : 34962}, {"buffer" : 0, "byteOffset" : 11824, "byteLength" : 720, "byteStride" : 20, "target" : 34962}, {"buffer" : 0, "byteOffset" : 12548, "byteLength" : 720, "byteStride" : 20, "target" : 34962}, {"buffer" : 0, "byteOffset" : 13272, "byteLength" : 720, "byteStride" : 20, "target" : 34962}, {"buffer" : 0, "byteOffset" : 13996, "byteLength" : 720, "byteStride" : 20, "target" : 34962}, {"buffer" : 0, "byteOffset" : 14720, "byteLength" : 720, "byteStride" : 20, "target" : 34962}, {"buffer" : 0, "byteOffset" : 15444, "byteLength" : 720, "byteStride" : 20, "target" : 34962}, {"buffer" : 0, "byteOffset" : 16168, "byteLength" : 720, "byteStride" : 20, "target" : 34962}, {"buffer" : 0, "byteOffset" : 16892, "byteLength" : 720, "byteStride" : 20, "target" : 34962}, {"buffer" : 0, "byteOffset" : 17616, "byteLength" : 4320, "byteStride" : 20, "target" : 34962}, {"buffer" : 0, "byteOffset" : 21940, "byteLength" : 720, "byteStride" : 20, "target" : 34962}, {"buffer" : 0, "byteOffset" : 22664, "byteLength" : 8640, "byteStride" : 20, "target" : 34962}, {"buffer" : 0, "byteOffset" : 31308, "byteLength" : 3600, "byteStride" : 20, "target" : 34962}, {"buffer" : 0, "byteOffset" : 34912, "byteLength" : 720, "byteStride" : 20, "target" : 34962}, {"buffer" : 0, "byteOffset" : 35636, "byteLength" : 720, "byteStride" : 20, "target" : 34962}, {"buffer" : 0, "byteOffset" : 36360, "byteLength" : 720, "byteStride" : 20, "target" : 34962}, {"buffer" : 0, "byteOffset" : 37084, "byteLength" : 2160, "byteStride" : 20, "target" : 34962}, {"buffer" : 0, "byteOffset" : 39248, "byteLength" : 1440, "byteStride" : 20, "target" : 34962}, {"buffer" : 0, "byteOffset" : 40692, "byteLength" : 2160, "byteStride" : 20, "target" : 34962}, {"buffer" : 0, "byteOffset" : 42856, "byteLength" : 720, "byteStride" : 20, "target" : 34962}, {"buffer" : 0, "byteOffset" : 43580, "byteLength" : 720, "byteStride" : 20, "target" : 34962}, {"buffer" : 0, "byteOffset" : 44304, "byteLength" : 720, "byteStride" : 20, "target" : 34962}, {"buffer" : 0, "byteOffset" : 45028, "byteLength" : 2160, "byteStride" : 20, "target" : 34962}, {"buffer" : 0, "byteOffset" : 47192, "byteLength" : 720, "byteStride" : 20, "target" : 34962}, {"buffer" : 0, "byteOffset" : 47916, "byteLength" : 720, "byteStride" : 20, "target" : 34962}, {"buffer" : 0, "byteOffset" : 48640, "byteLength" : 720, "byteStride" : 20, "target" : 34962}, {"buffer" : 0, "byteOffset" : 49364, "byteLength" : 2160, "byteStride" : 20, "target" : 34962}, {"buffer" : 0, "byteOffset" : 51528, "byteLength" : 720, "byteStride" : 20, "target" : 34962}, {"buffer" : 0, "byteOffset" : 52252, "byteLength" : 720, "byteStride" : 20, "target" : 34962}, {"buffer" : 0, "byteOffset" : 52976, "byteLength" : 13680, "byteStride" : 20, "target" : 34962}], "meshes" : [{"primitives" : [{"attributes" : {"POSITION" : 1, "TEXCOORD_0" : 2}, "indices" : 0, "mode" : 4}, {"attributes" : {"POSITION" : 4, "TEXCOORD_0" : 5}, "indices" : 3, "mode" : 4}, {"attributes" : {"POSITION" : 7, "TEXCOORD_0" : 8}, "indices" : 6, "mode" : 4}, {"attributes" : {"POSITION" : 10, "TEXCOORD_0" : 11}, "indices" : 9, "mode" : 4}, {"attributes" : {"POSITION" : 13, "TEXCOORD_0" : 14}, "indices" : 12, "mode" : 4}, {"attributes" : {"POSITION" : 16, "TEXCOORD_0" : 17}, "indices" : 15, "mode" : 4}, {"attributes" : {"POSITION" : 19, "TEXCOORD_0" : 20}, "indices" : 18, "mode" : 4}, {"attributes" : {"POSITION" : 22, "TEXCOORD_0" : 23}, "indices" : 21, "mode" : 4}, {"attributes" : {"POSITION" : 25, "TEXCOORD_0" : 26}, "indices" : 24, "mode" : 4}, {"attributes" : {"POSITION" : 28, "TEXCOORD_0" : 29}, "indices" : 27, "mode" : 4}, {"attributes" : {"POSITION" : 31, "TEXCOORD_0" : 32}, "indices" : 30, "mode" : 4}, {"attributes" : {"POSITION" : 34, "TEXCOORD_0" : 35}, "indices" : 33, "mode" : 4}, {"attributes" : {"POSITION" : 37, "TEXCOORD_0" : 38}, "indices" : 36, "mode" : 4}, {"attributes" : {"POSITION" : 40, "TEXCOORD_0" : 41}, "indices" : 39, "mode" : 4}, {"attributes" : {"POSITION" : 43, "TEXCOORD_0" : 44}, "indices" : 42, "mode" : 4}, {"attributes" : {"POSITION" : 46, "TEXCOORD_0" : 47}, "indices" : 45, "mode" : 4}, {"attributes" : {"POSITION" : 49, "TEXCOORD_0" : 50}, "indices" : 48, "mode" : 4}, {"attributes" : {"POSITION" : 52, "TEXCOORD_0" : 53}, "indices" : 51, "mode" : 4}, {"attributes" : {"POSITION" : 55, "TEXCOORD_0" : 56}, "indices" : 54, "mode" : 4}, {"attributes" : {"POSITION" : 58, "TEXCOORD_0" : 59}, "indices" : 57, "mode" : 4}, {"attributes" : {"POSITION" : 61, "TEXCOORD_0" : 62}, "indices" : 60, "mode" : 4}, {"attributes" : {"POSITION" : 64, "TEXCOORD_0" : 65}, "indices" : 63, "mode" : 4}, {"attributes" : {"POSITION" : 67, "TEXCOORD_0" : 68}, "indices" : 66, "mode" : 4}, {"attributes" : {"POSITION" : 70, "TEXCOORD_0" : 71}, "indices" : 69, "mode" : 4}, {"attributes" : {"POSITION" : 73, "TEXCOORD_0" : 74}, "indices" : 72, "mode" : 4}, {"attributes" : {"POSITION" : 76, "TEXCOORD_0" : 77}, "indices" : 75, "mode" : 4}, {"attributes" : {"POSITION" : 79, "TEXCOORD_0" : 80}, "indices" : 78, "mode" : 4}, {"attributes" : {"POSITION" : 82, "TEXCOORD_0" : 83}, "indices" : 81, "mode" : 4}, {"attributes" : {"POSITION" : 85, "TEXCOORD_0" : 86}, "indices" : 84, "mode" : 4}, {"attributes" : {"POSITION" : 88, "TEXCOORD_0" : 89}, "indices" : 87, "mode" : 4}, {"attributes" : {"POSITION" : 91, "TEXCOORD_0" : 92}, "indices" : 90, "mode" : 4}, {"attributes" : {"POSITION" : 94, "TEXCOORD_0" : 95}, "indices" : 93, "mode" : 4}], "name" : ""}], "nodes" : [{"mesh" : 0, "name" : "DiamondSword"}], "scene" : 0, "scenes" : [{"nodes" : [0]}]}